mtllib ShowMe.mtl

g Mesh1 Model

usemtl flat_800x800_070_f
v 190.254 826.853 -4.40664e-13
vt 1.79762 1.80647
vn -1.8533e-19 6.23507e-16 1
v 184.4 826.853 -4.40664e-13
vt 1.79095 1.80647
v 187.327 826.437 -4.40405e-13
vt 1.79429 1.806
f 1/1/1 2/2/1 3/3/1

v 192.948 828.069 -4.4142e-13
vt 1.80069 1.80784
f 2/2/1 1/1/1 4/4/1

v 181.705 828.069 -4.4142e-13
vt 1.78789 1.80784
f 2/2/1 4/4/1 5/5/1

v 194.977 829.746 -4.42464e-13
vt 1.803 1.80974
f 5/5/1 4/4/1 6/6/1

v -308.416 833.662 -4.48489e-13
vt 1.22992 1.81418
f 7/7/1 5/5/1 6/6/1

v -315.464 823.596 -4.4524e-13
vt 1.22189 1.80278
f 8/8/1 5/5/1 7/7/1

v -322.532 813.543 -4.42523e-13
vt 1.21385 1.79139
f 9/9/1 5/5/1 8/8/1

v 187.333 811.318 -4.31017e-13
vt 1.79429 1.78887
f 9/9/1 10/10/1 5/5/1

v -329.62 803.504 -4.40338e-13
vt 1.20578 1.78002
f 11/11/1 10/10/1 9/9/1

v 192.441 794.402 -4.20509e-13
vt 1.80011 1.76971
f 11/11/1 12/12/1 10/10/1

v -335.903 787.209 -4.28305e-13
vt 1.19862 1.76156
f 13/13/1 12/12/1 11/11/1

v 197.025 777.336 -4.09906e-13
vt 1.80533 1.75038
f 13/13/1 14/14/1 12/12/1

v -341.459 770.651 -4.16228e-13
vt 1.1923 1.74281
f 15/15/1 14/14/1 13/13/1

v 201.081 760.137 -3.99218e-13
vt 1.80994 1.7309
f 15/15/1 16/16/1 14/14/1

v -346.276 753.864 -4.04131e-13
vt 1.18682 1.72379
f 17/17/1 16/16/1 15/15/1

v 204.604 742.821 -3.88456e-13
vt 1.81396 1.71128
f 17/17/1 18/18/1 16/16/1

v -350.346 736.88 -3.92038e-13
vt 1.18218 1.70455
f 19/19/1 18/18/1 17/17/1

v 207.591 725.405 -3.77629e-13
vt 1.81736 1.69155
f 19/19/1 20/20/1 18/18/1

v -353.66 719.733 -3.79971e-13
vt 1.17841 1.68513
f 21/21/1 20/20/1 19/19/1

v 210.041 707.905 -3.66749e-13
vt 1.82014 1.67173
f 21/21/1 22/22/1 20/20/1

v -356.212 702.456 -3.67956e-13
vt 1.1755 1.66556
f 23/23/1 22/22/1 21/21/1

v 211.949 690.338 -3.55824e-13
vt 1.82232 1.65183
f 23/23/1 24/24/1 22/22/1

v -357.997 685.082 -3.56015e-13
vt 1.17347 1.64588
f 25/25/1 24/24/1 23/23/1

v 213.314 672.72 -3.44866e-13
vt 1.82387 1.63187
f 25/25/1 26/26/1 24/24/1

v -359.011 667.647 -3.44172e-13
vt 1.17232 1.62613
f 27/27/1 26/26/1 25/25/1

v -359.252 650.184 -3.3245e-13
vt 1.17204 1.60635
f 28/28/1 26/26/1 27/27/1

v 214.291 649.087 -3.30164e-13
vt 1.82498 1.6051
f 28/28/1 29/29/1 26/26/1

v -358.72 632.727 -3.20871e-13
vt 1.17265 1.58657
f 30/30/1 29/29/1 28/28/1

v 214.291 625.433 -3.15446e-13
vt 1.82498 1.57831
f 30/30/1 31/31/1 29/29/1

v -357.416 615.311 -3.0946e-13
vt 1.17413 1.56685
f 32/32/1 31/31/1 30/30/1

v 213.314 601.8 -3.00737e-13
vt 1.82387 1.55154
f 32/32/1 33/33/1 31/31/1

v -355.342 597.97 -2.98238e-13
vt 1.17649 1.5472
f 34/34/1 33/33/1 32/32/1

v -356.519 595.045 -2.96347e-13
vt 1.17515 1.54389
f 35/35/1 33/33/1 34/34/1

v -357.49 592.045 -2.94409e-13
vt 1.17405 1.54049
f 36/36/1 33/33/1 35/35/1

v -358.25 588.984 -2.92431e-13
vt 1.17318 1.53702
f 37/37/1 33/33/1 36/36/1

v 213.79 588.362 -2.94584e-13
vt 1.82441 1.53632
f 37/37/1 38/38/1 33/33/1

v -358.796 585.879 -2.90424e-13
vt 1.17256 1.53351
f 39/39/1 38/38/1 37/37/1

v -359.124 582.743 -2.88397e-13
vt 1.17219 1.52995
f 40/40/1 38/38/1 39/39/1

v -359.234 579.591 -2.86361e-13
vt 1.17206 1.52638
f 41/41/1 38/38/1 40/40/1

v -359.124 576.44 -2.84325e-13
vt 1.17219 1.52281
f 42/42/1 38/38/1 41/41/1

v 213.815 574.915 -2.8801e-13
vt 1.82444 1.52109
f 42/42/1 43/43/1 38/38/1

v -358.796 573.304 -2.82298e-13
vt 1.17256 1.51926
f 44/44/1 43/43/1 42/42/1

v -358.25 570.198 -2.80291e-13
vt 1.17318 1.51574
f 45/45/1 43/43/1 44/44/1

v -357.49 567.138 -2.78313e-13
vt 1.17405 1.51228
f 46/46/1 43/43/1 45/45/1

v -356.519 564.138 -2.76375e-13
vt 1.17515 1.50888
f 47/47/1 43/43/1 46/46/1

v 213.389 561.475 -2.81024e-13
vt 1.82396 1.50586
f 47/47/1 48/48/1 43/43/1

v -355.342 561.213 -2.74484e-13
vt 1.17649 1.50557
f 49/49/1 48/48/1 47/47/1

v 212.512 548.057 -2.73632e-13
vt 1.82296 1.49066
f 49/49/1 50/50/1 48/48/1

v -352.439 546.839 -2.65573e-13
vt 1.1798 1.48928
f 51/51/1 50/50/1 49/49/1

v 211.185 534.676 -2.65844e-13
vt 1.82145 1.47551
f 51/51/1 52/52/1 50/50/1

v -348.828 532.627 -2.56771e-13
vt 1.18391 1.47319
f 53/53/1 52/52/1 51/51/1

v 209.41 521.347 -2.57667e-13
vt 1.81943 1.46041
f 53/53/1 54/54/1 52/52/1

v -344.518 518.611 -2.48098e-13
vt 1.18882 1.45731
f 55/55/1 54/54/1 53/53/1

v 207.349 508.958 -2.49689e-13
vt 1.81708 1.44638
f 55/55/1 56/56/1 54/54/1

v -339.519 504.825 -2.39576e-13
vt 1.19451 1.44169
f 57/57/1 56/56/1 55/55/1

v 204.901 496.64 -2.41387e-13
vt 1.81429 1.43242
f 57/57/1 58/58/1 56/56/1

v -333.845 491.304 -2.31226e-13
vt 1.20097 1.42638
f 59/59/1 58/58/1 57/57/1

v 202.068 484.405 -2.32772e-13
vt 1.81107 1.41856
f 59/59/1 60/60/1 58/58/1

v -327.508 478.08 -2.23069e-13
vt 1.20818 1.4114
f 61/61/1 60/60/1 59/59/1

v 198.853 472.265 -2.2385e-13
vt 1.80741 1.40481
f 61/61/1 62/62/1 60/60/1

v -320.525 465.186 -2.15125e-13
vt 1.21613 1.39679
f 63/63/1 62/62/1 61/61/1

v 195.26 460.232 -2.14631e-13
vt 1.80332 1.39118
f 63/63/1 64/64/1 62/62/1

v -312.912 452.653 -2.07412e-13
vt 1.2248 1.3826
f 65/65/1 64/64/1 63/63/1

v 191.291 448.317 -2.05124e-13
vt 1.7988 1.37768
f 65/65/1 66/66/1 64/64/1

v 186.613 442.658 -2.01603e-13
vt 1.79347 1.37127
f 65/65/1 67/67/1 66/66/1

v -304.688 440.512 -1.9995e-13
vt 1.23416 1.36884
f 68/68/1 67/67/1 65/65/1

v 182.21 436.782 -1.97947e-13
vt 1.78846 1.36462
f 68/68/1 69/69/1 67/67/1

v 178.092 430.703 -1.94164e-13
vt 1.78377 1.35773
f 68/68/1 70/70/1 69/69/1

v -295.873 428.793 -1.92758e-13
vt 1.2442 1.35557
f 71/71/1 70/70/1 68/68/1

v 174.268 424.435 -1.90264e-13
vt 1.77942 1.35063
f 71/71/1 72/72/1 70/70/1

v 170.748 417.991 -1.86254e-13
vt 1.77541 1.34333
f 71/71/1 73/73/1 72/72/1

v -286.49 417.525 -1.85852e-13
vt 1.25488 1.34281
f 74/74/1 73/73/1 71/71/1

v 167.538 411.388 -1.82145e-13
vt 1.77176 1.33585
f 74/74/1 75/75/1 73/73/1

v -276.56 406.735 -1.7925e-13
vt 1.26618 1.33058
f 76/76/1 75/75/1 74/74/1

v 164.647 404.638 -1.77946e-13
vt 1.76847 1.32821
f 76/76/1 77/77/1 75/75/1

v -272.842 402.655 -1.73792e-13
vt 1.27042 1.32596
f 78/78/1 77/77/1 76/76/1

v -269.371 398.364 -1.68942e-13
vt 1.27437 1.3211
f 79/79/1 77/77/1 78/78/1

v 162.081 397.759 -1.73665e-13
vt 1.76555 1.32042
f 79/79/1 80/80/1 77/77/1

v -266.16 393.875 -1.64718e-13
vt 1.27802 1.31602
f 81/81/1 80/80/1 79/79/1

v 159.846 390.765 -1.69313e-13
vt 1.763 1.31249
f 81/81/1 82/82/1 80/80/1

v -263.219 389.204 -1.61133e-13
vt 1.28137 1.31072
f 83/83/1 82/82/1 81/81/1

v -260.559 384.367 -1.582e-13
vt 1.2844 1.30525
f 84/84/1 82/82/1 83/83/1

v 157.946 383.673 -1.649e-13
vt 1.76084 1.30446
f 84/84/1 85/85/1 82/82/1

v -258.19 379.382 -1.55929e-13
vt 1.2871 1.2996
f 86/86/1 85/85/1 84/84/1

v 156.387 376.498 -1.60435e-13
vt 1.75906 1.29633
f 86/86/1 87/87/1 85/85/1

v -256.119 374.266 -1.54329e-13
vt 1.28945 1.2938
f 88/88/1 87/87/1 86/86/1

v 155.172 369.257 -1.5593e-13
vt 1.75768 1.28813
f 88/88/1 89/89/1 87/87/1

v -254.353 369.036 -1.53405e-13
vt 1.29146 1.28788
f 90/90/1 89/89/1 88/88/1

v -252.9 363.711 -1.5316e-13
vt 1.29312 1.28185
f 91/91/1 89/89/1 90/90/1

v -251.763 358.31 -1.53595e-13
vt 1.29441 1.27573
f 92/92/1 89/89/1 91/91/1

v -250.948 352.851 -1.54709e-13
vt 1.29534 1.26955
f 93/93/1 89/89/1 92/92/1

v -250.456 347.354 -1.56497e-13
vt 1.2959 1.26332
f 94/94/1 89/89/1 93/93/1

v -248.551 342.476 -1.51523e-13
vt 1.29807 1.25779
f 95/95/1 89/89/1 94/94/1

v -246.557 337.635 -1.46585e-13
vt 1.30034 1.25231
f 96/96/1 89/89/1 95/95/1

v -244.475 332.831 -1.41686e-13
vt 1.30271 1.24687
f 97/97/1 89/89/1 96/96/1

v -242.304 328.067 -1.36827e-13
vt 1.30518 1.24147
f 98/98/1 89/89/1 97/97/1

v -240.047 323.342 -1.32009e-13
vt 1.30775 1.23612
f 99/99/1 89/89/1 98/98/1

v -237.703 318.661 -1.27234e-13
vt 1.31042 1.23082
f 100/100/1 89/89/1 99/99/1

v -235.273 314.023 -1.22504e-13
vt 1.31319 1.22556
f 101/101/1 89/89/1 100/100/1

v -232.759 309.43 -1.17821e-13
vt 1.31605 1.22036
f 102/102/1 89/89/1 101/101/1

v -230.161 304.884 -1.13185e-13
vt 1.31901 1.21521
f 103/103/1 89/89/1 102/102/1

v -227.479 300.387 -1.08599e-13
vt 1.32206 1.21012
f 104/104/1 89/89/1 103/103/1

v -224.716 295.94 -1.04063e-13
vt 1.3252 1.20508
f 105/105/1 89/89/1 104/104/1

v -221.871 291.545 -9.95805e-14
vt 1.32844 1.2001
f 106/106/1 89/89/1 105/105/1

v -214.316 275.864 -9.09421e-14
vt 1.33704 1.18234
f 107/107/1 89/89/1 106/106/1

v -205.943 260.604 -8.24916e-14
vt 1.34657 1.16505
f 108/108/1 89/89/1 107/107/1

v -196.776 245.808 -7.42525e-14
vt 1.35701 1.14829
f 109/109/1 89/89/1 108/108/1

v -186.839 231.517 -6.62481e-14
vt 1.36832 1.13211
f 110/110/1 89/89/1 109/109/1

v -176.16 217.772 -5.85005e-14
vt 1.38048 1.11654
f 111/111/1 89/89/1 110/110/1

v -164.77 204.61 -5.10315e-14
vt 1.39345 1.10163
f 112/112/1 89/89/1 111/111/1

v -152.7 192.069 -4.3862e-14
vt 1.40719 1.08742
f 113/113/1 89/89/1 112/112/1

v 128.46 183.053 -4.00659e-14
vt 1.72727 1.07721
f 113/113/1 114/114/1 89/89/1

v -139.984 180.183 -3.7012e-14
vt 1.42167 1.07396
f 115/115/1 114/114/1 113/113/1

v -126.657 168.987 -3.05007e-14
vt 1.43684 1.06128
f 116/116/1 114/114/1 115/115/1

v 115.597 168.214 -3.08338e-14
vt 1.71263 1.0604
f 116/116/1 117/117/1 114/114/1

v -112.757 158.51 -2.43462e-14
vt 1.45266 1.04941
f 118/118/1 117/117/1 116/116/1

v 101.061 155.009 -2.26184e-14
vt 1.69608 1.04544
f 118/118/1 119/119/1 117/117/1

v -98.323 148.783 -1.85659e-14
vt 1.46909 1.03839
f 120/120/1 119/119/1 118/118/1

v 85.058 143.626 -1.55363e-14
vt 1.67786 1.03255
f 120/120/1 121/121/1 119/119/1

v -83.3948 139.832 -1.31758e-14
vt 1.48609 1.02825
f 122/122/1 121/121/1 120/120/1

v 67.8157 134.226 -9.68793e-15
vt 1.65823 1.0219
f 122/122/1 123/123/1 121/121/1

v -65.7468 131.218 -7.81635e-15
vt 1.50618 1.01849
f 124/124/1 123/123/1 122/122/1

v 49.5782 126.942 -5.15622e-15
vt 1.63747 1.01365
f 124/124/1 125/125/1 123/123/1

v -47.1998 124.762 -3.8001e-15
vt 1.52729 1.01118
f 126/126/1 125/125/1 124/124/1

v 30.6042 121.878 -2.00544e-15
vt 1.61587 1.00791
f 126/126/1 127/127/1 125/125/1

v -28.0171 120.557 -1.18399e-15
vt 1.54913 1.00642
f 128/128/1 127/127/1 126/126/1

v 11.1628 119.105 -2.80256e-16
vt 1.59374 1.00477
f 128/128/1 129/129/1 127/127/1

v -8.47047 118.663 -5.14144e-18
vt 1.57138 1.00427
f 129/129/1 128/128/1 130/130/1

v 196.525 831.876 -4.43789e-13
vt 1.80476 1.81216
f 7/7/1 6/6/1 131/131/1

v 197.495 834.323 -4.45312e-13
vt 1.80586 1.81493
f 7/7/1 131/131/1 132/132/1

v -301.387 843.742 -4.5227e-13
vt 1.23792 1.8256
f 7/7/1 132/132/1 133/133/1

v 197.825 836.935 -4.46938e-13
vt 1.80624 1.81789
f 133/133/1 132/132/1 134/134/1

v 197.495 839.547 -4.48563e-13
vt 1.80586 1.82085
f 133/133/1 134/134/1 135/135/1

v 196.525 841.994 -4.50086e-13
vt 1.80476 1.82362
f 133/133/1 135/135/1 136/136/1

v 194.977 844.124 -4.51411e-13
vt 1.803 1.82603
f 133/133/1 136/136/1 137/137/1

v -294.378 853.836 -4.56582e-13
vt 1.2459 1.83703
f 133/133/1 137/137/1 138/138/1

v 188.282 850.931 -4.55647e-13
vt 1.79537 1.83374
f 138/138/1 137/137/1 139/139/1

v 181.282 857.425 -4.59688e-13
vt 1.78741 1.8411
f 138/138/1 139/139/1 140/140/1

v -287.388 863.943 -4.61427e-13
vt 1.25386 1.84848
f 138/138/1 140/140/1 141/141/1

v 173.993 863.593 -4.63525e-13
vt 1.77911 1.84808
f 141/141/1 140/140/1 142/142/1

v 166.429 869.421 -4.67152e-13
vt 1.7705 1.85469
f 141/141/1 142/142/1 143/143/1

v -280.419 874.065 -4.66802e-13
vt 1.26179 1.85995
f 141/141/1 143/143/1 144/144/1

v 158.607 874.897 -4.70559e-13
vt 1.76159 1.86089
f 144/144/1 143/143/1 145/145/1

v -273.469 884.199 -4.7271e-13
vt 1.2697 1.87143
f 144/144/1 145/145/1 146/146/1

v 150.543 880.01 -4.73741e-13
vt 1.75241 1.86668
f 146/146/1 145/145/1 147/147/1

v 142.254 884.749 -4.76689e-13
vt 1.74297 1.87205
f 146/146/1 147/147/1 148/148/1

v -266.539 894.348 -4.79149e-13
vt 1.27759 1.88292
f 146/146/1 148/148/1 149/149/1

v 133.757 889.104 -4.794e-13
vt 1.7333 1.87698
f 149/149/1 148/148/1 150/150/1

v 125.069 893.066 -4.81865e-13
vt 1.72341 1.88147
f 149/149/1 150/150/1 151/151/1

v 116.21 896.628 -4.84081e-13
vt 1.71332 1.8855
f 149/149/1 151/151/1 152/152/1

v -259.629 904.51 -4.8612e-13
vt 1.28546 1.89443
f 149/149/1 152/152/1 153/153/1

v 107.197 899.78 -4.86043e-13
vt 1.70306 1.88908
f 153/153/1 152/152/1 154/154/1

v 98.0493 902.518 -4.87746e-13
vt 1.69265 1.89218
f 153/153/1 154/154/1 155/155/1

v 89.6071 909.368 -4.92008e-13
vt 1.68304 1.89994
f 153/153/1 155/155/1 156/156/1

v -252.739 914.685 -4.93623e-13
vt 1.2933 1.90596
f 153/153/1 156/156/1 157/157/1

v 81.0328 916.051 -4.96167e-13
vt 1.67328 1.90751
f 157/157/1 156/156/1 158/158/1

v -245.869 924.874 -5.01657e-13
vt 1.30112 1.9175
f 157/157/1 158/158/1 159/159/1

v 72.3298 922.567 -5.00221e-13
vt 1.66337 1.91489
f 159/159/1 158/158/1 160/160/1

v 63.5013 928.911 -5.04169e-13
vt 1.65332 1.92207
f 159/159/1 160/160/1 161/161/1

v -231.037 940.415 -5.11327e-13
vt 1.31801 1.9351
f 159/159/1 161/161/1 162/162/1

v 54.5507 935.082 -5.08009e-13
vt 1.64313 1.92906
f 162/162/1 161/161/1 163/163/1

v 45.4815 941.077 -5.11739e-13
vt 1.63281 1.93585
f 162/162/1 163/163/1 164/164/1

v -214.588 954.232 -5.19925e-13
vt 1.33673 1.95075
f 162/162/1 164/164/1 165/165/1

v 36.297 946.894 -5.15359e-13
vt 1.62235 1.94244
f 165/165/1 164/164/1 166/166/1

v 27.0008 952.531 -5.18866e-13
vt 1.61177 1.94883
f 165/165/1 166/166/1 167/167/1

v 17.5964 957.985 -5.2226e-13
vt 1.60106 1.95501
f 165/165/1 167/167/1 168/168/1

v -196.72 966.158 -5.27346e-13
vt 1.35708 1.96426
f 165/165/1 168/168/1 169/169/1

v 8.08736 963.255 -5.25539e-13
vt 1.59023 1.96098
f 169/169/1 168/168/1 170/170/1

v -1.52265 968.338 -5.28702e-13
vt 1.57929 1.96673
f 169/169/1 170/170/1 171/171/1

v -177.65 976.049 -5.33501e-13
vt 1.37879 1.97547
f 169/169/1 171/171/1 172/172/1

v -11.23 973.233 -5.31748e-13
vt 1.56824 1.97228
f 172/172/1 171/171/1 173/173/1

v -30.998 981.643 -5.36981e-13
vt 1.54574 1.9818
f 172/172/1 173/173/1 174/174/1

v -157.609 983.786 -5.38314e-13
vt 1.4016 1.98423
f 172/172/1 174/174/1 175/175/1

v -51.5703 987.83 -5.40831e-13
vt 1.52232 1.98881
f 175/175/1 174/174/1 176/176/1

v -136.839 989.273 -5.41729e-13
vt 1.42525 1.99045
f 175/175/1 176/176/1 177/177/1

v -72.6978 991.719 -5.43251e-13
vt 1.49827 1.99322
f 177/177/1 176/176/1 178/178/1

v -115.592 992.445 -5.43703e-13
vt 1.44943 1.99404
f 177/177/1 178/178/1 179/179/1

v -94.1247 993.264 -5.44212e-13
vt 1.47387 1.99497
f 179/179/1 178/178/1 180/180/1

g Mesh2 Model

l 47 49

l 46 47

l 45 46

l 44 45

l 42 44

l 41 42

l 40 41

l 39 40

l 37 39

l 36 37

l 35 36

l 34 35

l 32 34

l 30 32

l 28 30

l 27 28

l 25 27

l 23 25

l 21 23

l 19 21

l 17 19

l 15 17

l 13 15

l 11 13

l 9 11

l 8 9

l 7 8

l 133 7

l 138 133

l 141 138

l 144 141

l 146 144

l 149 146

l 153 149

l 157 153

l 159 157

l 159 162

l 162 165

l 165 169

l 169 172

l 172 175

l 175 177

l 177 179

l 179 180

l 180 178

l 178 176

l 176 174

l 174 173

l 173 171

l 171 170

l 170 168

l 168 167

l 167 166

l 166 164

l 164 163

l 163 161

l 161 160

l 160 158

l 158 156

l 156 155

l 154 155

l 152 154

l 151 152

l 150 151

l 148 150

l 147 148

l 145 147

l 143 145

l 142 143

l 140 142

l 139 140

l 137 139

l 136 137

l 135 136

l 134 135

l 132 134

l 131 132

l 6 131

l 4 6

l 1 4

l 3 1

l 2 3

l 5 2

l 10 5

l 12 10

l 14 12

l 16 14

l 18 16

l 20 18

l 22 20

l 24 22

l 26 24

l 29 26

l 31 29

l 33 31

l 38 33

l 43 38

l 48 43

l 50 48

l 52 50

l 54 52

l 56 54

l 58 56

l 60 58

l 62 60

l 64 62

l 66 64

l 67 66

l 69 67

l 70 69

l 72 70

l 73 72

l 75 73

l 77 75

l 80 77

l 82 80

l 85 82

l 87 85

l 89 87

l 114 89

l 117 114

l 119 117

l 121 119

l 123 121

l 125 123

l 127 125

l 129 127

l 130 129

l 128 130

l 126 128

l 124 126

l 122 124

l 120 122

l 118 120

l 116 118

l 115 116

l 113 115

l 112 113

l 111 112

l 110 111

l 109 110

l 108 109

l 107 108

l 106 107

l 105 106

l 104 105

l 103 104

l 102 103

l 101 102

l 100 101

l 99 100

l 98 99

l 97 98

l 96 97

l 95 96

l 94 95

l 93 94

l 92 93

l 91 92

l 90 91

l 88 90

l 86 88

l 84 86

l 83 84

l 81 83

l 79 81

l 78 79

l 76 78

l 74 76

l 71 74

l 68 71

l 65 68

l 63 65

l 61 63

l 59 61

l 57 59

l 55 57

l 53 55

l 51 53

l 49 51

